HIERARCHY
ROOT Hips
{
  OFFSET -35.2597 29.1586 114.425
  CHANNELS 6 Xposition Yposition Zposition Zrotation Xrotation Yrotation
  JOINT LeftUpLeg
  {
    OFFSET 8.64259 1.95398 -2.38835
    CHANNELS 3 Zrotation Xrotation Yrotation
    JOINT LeftLeg
    {
      OFFSET 43.7702 0 0
      CHANNELS 3 Zrotation Xrotation Yrotation
      JOINT LeftFoot
      {
        OFFSET 40.6238 0 0
        CHANNELS 3 Zrotation Xrotation Yrotation
        JOINT LeftToeBase
        {
          OFFSET 12.7242 0 0
          CHANNELS 3 Zrotation Xrotation Yrotation
          End Site
          {
            OFFSET 0 0 0
          }
        }
      }
    }
  }
  JOINT RightUpLeg
  {
    OFFSET -8.2249 1.95398 -2.59336
    CHANNELS 3 Zrotation Xrotation Yrotation
    JOINT RightLeg
    {
      OFFSET 43.5653 0 0
      CHANNELS 3 Zrotation Xrotation Yrotation
      JOINT RightFoot
      {
        OFFSET 40.6238 0 0
        CHANNELS 3 Zrotation Xrotation Yrotation
        JOINT RightToeBase
        {
          OFFSET 12.7242 0 0
          CHANNELS 3 Zrotation Xrotation Yrotation
          End Site
          {
            OFFSET 0 0 0
          }
        }
      }
    }
  }
  JOINT Spine
  {
    OFFSET 0.165834 0.87714 6.61349
    CHANNELS 3 Zrotation Xrotation Yrotation
    JOINT Spine1
    {
      OFFSET 7.38963 1.71661e-005 0
      CHANNELS 3 Zrotation Xrotation Yrotation
      JOINT Spine2
      {
        OFFSET 11.9445 1.14441e-005 0
        CHANNELS 3 Zrotation Xrotation Yrotation
        JOINT Spine3
        {
          OFFSET 14.7254 4.19617e-005 0
          CHANNELS 3 Zrotation Xrotation Yrotation
          JOINT Spine4
          {
            OFFSET 10.9679 0 0
            CHANNELS 3 Zrotation Xrotation Yrotation
            JOINT RightShoulder
            {
              OFFSET 2.46616 -1.6653 3.69651
              CHANNELS 3 Zrotation Xrotation Yrotation
              JOINT RightArm
              {
                OFFSET 13.0012 0 0
                CHANNELS 3 Zrotation Xrotation Yrotation
                JOINT RightForeArm
                {
                  OFFSET 28.7848 1.62311e-005 0
                  CHANNELS 3 Zrotation Xrotation Yrotation
                  JOINT RightHand
                  {
                    OFFSET 26.5688 1.62095e-005 0
                    CHANNELS 3 Zrotation Xrotation Yrotation
                    End Site
                    {
                      OFFSET 0 0 0
                    }
                  }
                }
              }
            }
            JOINT LeftShoulder
            {
              OFFSET 2.38034 -1.29275 -3.7523
              CHANNELS 3 Zrotation Xrotation Yrotation
              JOINT LeftArm
              {
                OFFSET 16.3182 6.07031e-005 0
                CHANNELS 3 Zrotation Xrotation Yrotation
                JOINT LeftForeArm
                {
                  OFFSET 27.0901 0 0
                  CHANNELS 3 Zrotation Xrotation Yrotation
                  JOINT LeftHand
                  {
                    OFFSET 24.5451 1.51738e-005 0
                    CHANNELS 3 Zrotation Xrotation Yrotation
                    End Site
                    {
                      OFFSET 0 0 0
                    }
                  }
                }
              }
            }
            JOINT Neck
            {
              OFFSET 5.0226 -0.0266342 0
              CHANNELS 3 Zrotation Xrotation Yrotation
              JOINT Head
              {
                OFFSET 6.69364 2.86102e-005 0
                CHANNELS 3 Zrotation Xrotation Yrotation
                End Site
                {
                  OFFSET 0 0 0
                }
              }
            }
          }
        }
      }
    }
  }
}
MOTION
Frames:	11
Frame Time:	0.0416667
-298.75 88.0334 295.638 93.3968 27.296 84.9031 -167.957 39.8595 89.1525 -60.6708 0.665935 -2.43905 80.5699 12.5349 4.11548 23.9599 -1.3346 -2.0204 172.63 -14.1287 82.6635 -36.1314 -27.8328 -7.95198 69.7019 -9.58879 -4.69591 45.4845 -7.97806 9.88759 3.98744 8.00306 -89.946 10.9123 7.96383 -0.643784 -0.734493 7.92777 -0.995903 -23.4608 7.7868 1.79451 -3.44815 7.78681 1.79451 95.4414 -19.5281 -98.587 28.9204 6.46251 32.7503 -37.1061 2.70206 -97.082 -58.3397 17.3708 -36.1198 -86.1039 -51.6892 84.8231 7.65088 -48.937 75.8379 121.923 -9.32957 -87.3525 53.0949 -33.9102 -64.4693 21.9599 -7.10241 2.38549 -17.2719 -7.50168 -1.30677 
-289.037 88.9047 286.353 87.9981 43.3757 89.5245 -177.849 43.5268 87.4375 -36.9632 11.4147 -0.927582 69.6605 7.5082 3.24983 26.4161 -0.497792 -1.35502 175.929 -14.963 91.5883 -35.9189 -19.9493 -5.34919 58.3676 2.26753 -3.46418 26.0151 -2.72311 12.7752 2.75336 7.6593 -89.4275 11.5539 5.74527 0.548772 -0.104236 5.7638 0.29451 -22.7302 5.31403 2.25495 -2.71751 5.31403 2.25495 94.0941 -17.2698 -102.703 26.9135 10.7016 37.5515 -38.7211 6.41283 -101.98 -58.7043 18.3091 -37.4955 -84.7464 -36.5066 84.6725 -7.39776 -34.9784 83.9033 107.784 -19.6333 -86.6686 53.8509 -24.2116 -48.4358 19.9844 -11.3589 -5.41 -14.8657 -9.2093 -1.25259 
-278.989 89.5773 276.1 89.1501 42.7319 89.1485 -176.042 36.8532 87.4626 -25.1047 11.6752 -2.54201 71.0668 8.3896 0.716361 22.6493 -5.90216 4.84083 176.922 -16.1028 92.2394 -43.6207 -19.5836 -5.76672 61.5453 -0.481622 -2.99399 17.1719 0.625288 10.8129 2.85221 7.41258 -89.5268 12.061 5.89426 0.304102 0.403564 5.9019 0.043459 -22.2298 5.52952 2.06694 -2.21716 5.52952 2.06693 94.2149 -17.9555 -102.132 29.3424 1.83569 42.8021 -39.764 8.41403 -104.07 -57.2581 19.5699 -40.6493 -85.2837 -41.3255 84.5061 -5.8591 -34.8955 84.6319 105.231 -17.8205 -88.0274 60.9282 -26.2157 -45.7468 15.7811 -10.4483 -4.17973 -13.754 -8.80619 -2.08718 
-270.176 89.4419 266.494 92.6862 42.8714 88.986 -174.686 33.8663 89.4864 -31.3051 9.79877 -2.95076 60.6083 -0.188762 1.16931 23.7479 -2.43197 -0.143493 174.56 -11.5052 91.5625 -57.6098 -9.53877 -2.6652 64.6907 -3.00647 -1.36237 20.848 -0.920784 11.6824 2.34213 7.40789 -89.9321 12.076 4.68819 -0.380869 0.413359 4.66687 -0.587291 -22.1877 4.58547 1.0488 -2.17504 4.58546 1.04879 92.904 -22.3908 -103.528 34.824 -6.58249 43.2739 -42.5103 3.23862 -98.3573 -53.8426 17.8052 -39.8631 -85.2418 -48.8689 85.7202 -11.1783 -28.701 74.5915 105.361 -13.4045 -89.0848 63.023 -19.7994 -34.4787 14.4307 -8.28288 -3.55966 -14.7033 -7.08658 -0.700241 
-261.819 88.826 257.762 95.6316 42.5801 84.9459 -171.18 30.6052 86.9159 -45.2292 12.1195 -4.07344 70.9463 7.71022 4.56596 14.1332 -9.67522 2.80171 171.792 0.804208 89.2046 -76.0998 -3.53869 -2.39913 68.7583 -6.60043 -4.25511 12.1161 4.62951 5.86432 1.50487 7.58808 -89.7058 11.6978 3.13118 0.258368 0.0306624 3.13954 0.12016 -22.5314 2.90866 1.18825 -2.51872 2.90865 1.18825 92.6534 -27.5108 -102.253 42.3706 -6.74648 37.6645 -50.8401 -10.2728 -83.463 -49.1288 14.102 -35.8469 -85.7818 -55.9741 85.8708 -16.2431 -22.0072 59.086 103.751 -6.77724 -90.9307 64.4295 -11.7047 -21.9083 14.433 -5.3263 -5.60347 -13.9093 -3.86316 1.25847 
-254.006 87.7779 249.993 97.8266 37.8748 77.4625 -167.656 20.9413 82.5687 -49.3292 7.47522 -6.09446 77.9584 13.7417 5.41024 23.3707 -2.56316 -0.214582 176.629 17.0191 84.9242 -89.6764 -1.00851 -4.80911 72.042 -9.38986 -5.58306 15.9878 2.16847 8.06783 0.972346 7.87747 -88.8351 11.0875 2.47573 2.07409 -0.582568 2.56459 1.96309 -23.1151 1.73818 2.72204 -3.10245 1.73819 2.72203 90.8175 -32.7554 -104.184 43.5455 4.26889 26.0371 -53.5147 -40.0744 -64.0203 -49.6615 11.6242 -30.273 -86.625 -59.6525 85.1844 -20.4605 -14.992 32.0469 103.062 6.56295 -94.5953 80.1737 -8.13584 -12.917 15.2597 -2.15548 -7.96167 -14.5917 -0.118538 1.61689 
-246.445 86.5423 242.607 97.7849 35.9158 78.2994 -167.366 13.6803 84.0268 -52.2336 2.79528 -5.46221 90.2239 21.2867 -0.164617 24.619 -5.80342 6.71438 -178.607 32.49 88.7984 -91.2598 -0.249731 -4.82794 73.3044 -10.5318 -7.81452 18.8644 -1.10812 13.9 0.323866 7.79906 -88.9636 11.2704 1.12707 1.94833 -0.401859 1.2117 1.89687 -22.9237 0.489681 2.19684 -2.91106 0.489687 2.19684 91.6009 -31.4365 -103.095 39.4896 10.9465 26.4021 -59.1804 -60.3319 -61.8572 -46.9117 8.05969 -23.9656 -86.9534 -60.4782 84.8528 -20.8796 -14.1526 10.0166 110.324 8.85952 -95.5999 73.9021 -15.8526 -23.5937 14.1729 2.28844 -4.76162 -14.5425 3.5437 -0.343688 
-237.283 87.1731 233.201 99.7314 38.5239 79.3742 -169.443 -0.973113 85.1738 -45.0676 0.0730507 -3.37108 93.502 24.0272 -2.05588 31.3559 -2.06638 7.0854 -179.707 38.6742 91.1727 -78.4616 0.228019 -4.05646 76.441 -10.7293 -5.04384 17.3451 1.07006 9.54676 -0.760652 7.74583 -89.3336 11.3868 -1.20264 1.4488 -0.284366 -1.13769 1.50031 -22.8209 -1.58243 1.02039 -2.80821 -1.58243 1.02039 93.7115 -28.8386 -99.6537 35.8864 14.4199 23.8232 -20.7628 -71.5601 -20.7115 -52.2831 11.5296 -28.365 -86.9155 -58.1563 84.5873 -21.1053 -13.1268 0.274463 97.522 9.43378 -93.3808 67.9136 -9.41897 -17.6757 13.1577 6.70428 -2.61079 -16.012 7.28484 -0.316051 
-227.76 87.7763 224.025 100.402 39.3309 80.9539 -170.146 -11.6377 87.9867 -37.5076 1.8951 -2.12869 87.364 20.8395 1.30844 39.0369 1.61747 8.75132 -179.132 39.8839 91.9597 -55.8223 1.60803 -2.83975 77.6452 -10.351 1.24591 4.84239 5.60981 9.5398 -1.69652 7.64425 -89.6512 11.6034 -3.2112 1.02746 -0.0641194 -3.16287 1.16791 -22.6311 -3.37136 0.0138053 -2.61846 -3.37139 0.0137959 95.123 -24.7085 -97.8013 30.8102 15.9852 28.376 -9.41862 -70.7053 -8.8307 -51.0264 14.8181 -36.0342 -86.568 -50.3608 83.933 -20.9046 -13.3772 -3.60994 93.3416 8.12883 -92.5524 69.8638 -7.97865 -15.1663 12.8951 10.8404 -2.57587 -17.8679 10.9885 2.15467 
-217.208 88.754 213.891 101.943 40.2962 81.5262 -170.59 -22.313 90.2188 -31.2149 2.97394 -0.41627 72.9208 9.43791 2.99034 45.6137 6.5455 4.42103 -179.973 32.0475 92.9082 -27.1809 -8.28039 -0.950811 63.2865 -2.85835 1.12598 20.3483 1.73725 5.0891 -2.58437 7.70042 -90.0085 11.4963 -5.14564 0.510279 -0.16461 -5.11817 0.736835 -22.7799 -5.06049 -1.0639 -2.76728 -5.06046 -1.0639 96.4011 -19.7452 -96.1966 26.2985 17.2603 45.4895 -56.1602 -61.5218 -58.7167 -47.1661 14.0953 -37.2579 -86.0941 -43.1274 83.482 -20.5535 -14.897 -0.346272 86.9236 3.76889 -91.7552 69.5208 -5.22093 -11.4642 14.924 14.4369 -1.20144 -21.0478 13.8104 4.02076 
-207.035 88.859 204.446 100.371 43.5852 83.5796 -170.879 -23.7219 92.3774 -35.456 5.73912 1.88221 64.6032 2.55121 2.81588 32.1637 0.864374 1.81305 -178.811 27.6288 92.4806 -12.1398 -14.6634 -1.23531 60.9356 -3.25885 -1.84779 21.5617 0.711511 6.53344 -3.11503 7.41258 -90.4295 12.0612 -6.39532 -0.153231 0.406072 -6.39584 0.129563 -22.2462 -6.05246 -2.07534 -2.23354 -6.05246 -2.07534 96.8528 -17.6881 -95.6397 22.3091 18.1782 61.886 -53.9496 -42.8157 -63.3214 -41.4576 15.1177 -44.2988 -85.9656 -39.301 83.0279 -20.9806 -12.8129 0.0338304 82.215 3.84382 -91.3927 72.8783 -3.13313 -8.3142 16.1305 15.2809 -0.380308 -23.1295 13.9202 6.41808 
